HIERARCHY
ROOT root
{
	OFFSET	0	13.1	24.9
	CHANNELS 6  Xposition Yposition Zposition Xrotation Yrotation Zrotation
	JOINT spine_1
	{
		OFFSET	0	9.99999	0
		CHANNELS 3  Xrotation Yrotation Zrotation
		JOINT spine_2
		{
			OFFSET	0	112	-10
			CHANNELS 3  Xrotation Yrotation Zrotation
			JOINT spine_3
			{
				OFFSET	0	206.5	19.3
				CHANNELS 3  Xrotation Yrotation Zrotation
				JOINT spine_4
				{
					OFFSET	0	110.4	14.6
					CHANNELS 3  Xrotation Yrotation Zrotation
					JOINT neck_1
					{
						OFFSET	0	71.8	-50.3
						CHANNELS 3  Xrotation Yrotation Zrotation
						JOINT neck_2
						{
							OFFSET	0	86.2	-25.8
							CHANNELS 3  Xrotation Yrotation Zrotation
							JOINT head_ee
							{
								OFFSET	0	179.8	-8.7
								CHANNELS 3  Xrotation Yrotation Zrotation
								End Site
								{
									OFFSET	1	0	0
								}
							}
						}
					}
					JOINT left_clavicle
					{
						OFFSET	-43.2	22.4	-70.8
						CHANNELS 3  Xrotation Yrotation Zrotation
						JOINT left_shoulder
						{
							OFFSET	-93.9	-5.79999	48.7
							CHANNELS 3  Xrotation Yrotation Zrotation
							JOINT left_elbow
							{
								OFFSET	-291.4	-30.8	15.2
								CHANNELS 3  Xrotation Yrotation Zrotation
								JOINT left_lowarm_twist
								{
									OFFSET	-110.7	-3.89999	13.6
									CHANNELS 3  Xrotation Yrotation Zrotation
									JOINT left_hand
									{
										OFFSET	-110.7	-3.89999	13.6
										CHANNELS 3  Xrotation Yrotation Zrotation
										JOINT left_ee
										{
											OFFSET	-80.8	-5.10001	12.1
											CHANNELS 3  Xrotation Yrotation Zrotation
											End Site
											{
												OFFSET	1	0	0
											}
										}
									}
								}
							}
						}
					}
					JOINT right_clavicle
					{
						OFFSET	43.2	22.4	-70.8
						CHANNELS 3  Xrotation Yrotation Zrotation
						JOINT right_shoulder
						{
							OFFSET	93.9	-5.79999	48.7
							CHANNELS 3  Xrotation Yrotation Zrotation
							JOINT right_elbow
							{
								OFFSET	291.4	-30.8	15.2
								CHANNELS 3  Xrotation Yrotation Zrotation
								JOINT right_lowarm_twist
								{
									OFFSET	110.7	-3.89999	13.6
									CHANNELS 3  Xrotation Yrotation Zrotation
									JOINT right_hand
									{
										OFFSET	110.7	-3.89999	13.6
										CHANNELS 3  Xrotation Yrotation Zrotation
										JOINT right_ee
										{
											OFFSET	80.8	-5.10001	12.1
											CHANNELS 3  Xrotation Yrotation Zrotation
											End Site
											{
												OFFSET	1	0	0
											}
										}
									}
								}
							}
						}
					}
				}
			}
		}
	}
	JOINT left_hip
	{
		OFFSET	-82.8	-127.5	0.300001
		CHANNELS 3  Xrotation Yrotation Zrotation
		JOINT left_knee
		{
			OFFSET	-28.2	-396.7	2.2
			CHANNELS 3  Xrotation Yrotation Zrotation
			JOINT left_ankle
			{
				OFFSET	-11.7	-411.3	35.4
				CHANNELS 3  Xrotation Yrotation Zrotation
				JOINT left_toes
				{
					OFFSET	0	-60	-88.6
					CHANNELS 3  Xrotation Yrotation Zrotation
					JOINT left_foot_ee
					{
						OFFSET	-22.5	-16.5	-42.2
						CHANNELS 3  Xrotation Yrotation Zrotation
						End Site
						{
							OFFSET	1	0	0
						}
					}
				}
			}
		}
	}
	JOINT right_hip
	{
		OFFSET	82.8	-127.5	0.300001
		CHANNELS 3  Xrotation Yrotation Zrotation
		JOINT right_knee
		{
			OFFSET	28.2	-396.7	2.2
			CHANNELS 3  Xrotation Yrotation Zrotation
			JOINT right_ankle
			{
				OFFSET	11.7	-411.3	35.4
				CHANNELS 3  Xrotation Yrotation Zrotation
				JOINT right_toes
				{
					OFFSET	0	-60	-88.6
					CHANNELS 3  Xrotation Yrotation Zrotation
					JOINT right_foot_ee
					{
						OFFSET	22.5	-16.5	-42.2
						CHANNELS 3  Xrotation Yrotation Zrotation
						End Site
						{
							OFFSET	1	0	0
						}
					}
				}
			}
		}
	}
}
MOTION
Frames: 12
Frame Time: 0.02
2567.70357241 772.563 -1559.31170214 16.8393037243 63.4479974119 -17.2842739534 -3.70157 0.205863 1.82194 -3.69973 0.0895307 1.83134 -3.69421 -0.413448 1.78632 -3.69864 -0.126193 1.82918 -14.7378 11.1932 8.6063 -14.7433 16.273 11.777 -0.0 0.0 -0.0 4.16973 23.9808 8.44643 -9.97764 -17.9891 62.3311 0.353623 -9.93614 0.0307395 -75.7707 -7.28331 5.31667 1.66072 8.83039 14.5445 -0.0 0.0 -0.0 8.39395 16.9059 -16.0486 19.0204 -6.27066 -75.0506 0.944585 25.0754 -0.210066 78.3836 3.65348 8.51604 -1.06187 -28.9213 -5.54388 0.0 0.0 0.0 2.69298 33.0394 -14.9668 -34.1864 -0.138913 5.16763 18.4153 20.1613 -2.59776 -40.1249 0.0 0.0 -0.0 0.0 -0.0 18.3126 30.3331 -12.3781 -22.5372 -0.25688 -3.42672 8.30094 0.982684 1.20136 -7.31575 0.0 0.0 0.0 0.0 0.0 
2562.73877542 771.985 -1558.31512132 17.3422389892 65.4764972788 -17.4131270697 -3.63918 0.218084 1.73736 -3.63751 0.107107 1.74771 -3.63181 -0.371841 1.71106 -3.63588 -0.0969871 1.7483 -13.8602 11.6629 8.3981 -13.8739 17.1241 11.6021 -0.0 0.0 -0.0 4.10275 22.968 8.36526 -10.1112 -18.3721 62.7177 0.264076 -7.45303 0.0171997 -75.6024 -7.26182 5.31731 2.02266 7.21481 16.3998 -0.0 0.0 -0.0 8.38974 17.0734 -16.029 19.4584 -6.34836 -75.1942 1.04039 27.265 -0.252329 80.5453 3.90157 8.64021 -0.193762 -29.0079 -10.2853 0.0 0.0 0.0 5.3668 37.0672 -17.0941 -27.8971 0.11885 4.23739 22.3061 16.712 -3.05687 -40.1605 0.0 0.0 -0.0 0.0 -0.0 18.6407 30.1315 -12.802 -21.7999 -0.269911 -3.31434 8.48338 1.35987 1.2283 -8.47748 0.0 0.0 0.0 0.0 0.0 
2546.28047189 769.176 -1554.40123156 17.8228901555 66.8882416205 -17.5076319175 -3.70351 0.524389 1.64266 -3.7021 0.418815 1.67268 -3.68721 -0.0529964 1.72349 -3.69129 0.219821 1.71024 -11.842 9.66948 6.06064 -11.8482 14.4251 8.5174 -0.0 0.0 -0.0 4.33413 24.5159 8.66234 -10.607 -17.9433 62.6131 0.284935 -8.03433 0.0200104 -75.3522 -7.22987 5.31814 2.83215 4.18586 20.9102 -0.0 0.0 -0.0 8.12312 19.928 -15.2447 18.9998 -2.10693 -74.5484 1.15053 29.6796 -0.304848 81.5656 4.02024 8.69555 0.575901 -29.1366 -14.5743 0.0 0.0 0.0 9.51716 40.7215 -19.1925 -13.6852 0.31741 2.07121 22.0506 9.55512 -2.98474 -38.8641 0.0 0.0 -0.0 0.0 -0.0 17.3741 29.9728 -12.7616 -20.7641 -0.285773 -3.15619 12.8569 2.09388 1.83535 -9.8853 0.0 0.0 0.0 0.0 0.0 
2518.04409709 768.124 -1541.65482669 19.1775805785 71.8686944354 -18.1869549547 -3.48824 0.261709 1.21167 -3.48744 0.184083 1.22586 -3.48223 -0.152687 1.23017 -3.48434 0.0434963 1.23884 -11.1584 8.54225 5.24137 -11.1555 12.7157 7.34478 -0.0 0.0 -0.0 3.7234 25.3079 7.82968 -11.2442 -16.3341 64.4729 0.412301 -11.5436 0.0416753 -74.3716 -7.10459 5.32005 2.64735 3.30359 19.2734 -0.0 0.0 -0.0 7.08914 19.1834 -13.037 14.6073 0.982641 -74.3661 1.60104 38.4153 -0.557813 82.0016 4.07125 8.71855 1.24066 -29.4156 -18.4007 0.0 0.0 0.0 12.3991 43.8144 -21.2616 -9.06393 0.265741 1.3642 16.7729 3.49509 -2.32831 -29.9755 0.0 0.0 -0.0 0.0 -0.0 14.823 28.5907 -11.9204 -15.3198 -0.322015 -2.32195 15.2886 -0.994107 2.14424 -15.6471 0.0 0.0 0.0 0.0 0.0 
2463.05962439 762.05 -1515.48556161 35.9634084085 77.9661065619 -34.6217946493 -3.23664 -0.0314263 0.402481 -3.23655 -0.0569733 0.399665 -3.23687 -0.160867 0.370271 -3.23704 -0.100371 0.391029 -10.065 7.33563 2.1462 -10.1039 12.3693 3.9304 -0.0 0.0 -0.0 4.56615 23.0396 9.01607 -11.585 -14.5313 65.0495 0.455209 -12.7077 0.0506888 -71.6233 -6.75333 5.31387 2.4855 3.36966 18.1643 -0.0 0.0 -0.0 5.30737 18.0138 -9.26798 3.81183 7.35972 -71.0824 2.18495 47.2587 -0.956007 84.3154 4.34474 8.83408 1.705 -29.4759 -21.0912 0.0 0.0 0.0 10.3155 45.0982 -20.7317 -12.2288 0.307284 1.84798 18.4649 -7.91216 -2.62992 -20.4098 0.0 0.0 -0.0 0.0 -0.0 4.57887 28.4724 -7.64576 -9.41445 -0.271658 -1.41766 27.7118 -1.34827 3.65257 -13.8411 0.0 0.0 0.0 0.0 0.0 
2462.76460575 762.05 -1513.02224864 37.1469650503 78.3015200334 -35.831188497 -3.23664 -0.0314263 0.402481 -3.23655 -0.0569733 0.399665 -3.23687 -0.160867 0.370271 -3.23704 -0.100371 0.391029 -10.065 7.33563 2.1462 -10.1039 12.3693 3.9304 -0.0 0.0 -0.0 4.56615 23.0396 9.01607 -11.585 -14.5313 65.0495 0.455209 -12.7077 0.0506888 -71.6233 -6.75333 5.31387 2.4855 3.36966 18.1643 -0.0 0.0 -0.0 5.30737 18.0138 -9.26798 3.81183 7.35972 -71.0824 2.18495 47.2587 -0.956007 84.3154 4.34474 8.83408 1.705 -29.4759 -21.0912 0.0 0.0 0.0 10.3155 45.0982 -20.7317 -12.2288 0.307284 1.84798 18.4649 -7.91216 -2.62992 -20.4098 0.0 0.0 -0.0 0.0 -0.0 4.57887 28.4724 -7.64576 -9.41445 -0.271658 -1.41766 27.7118 -1.34827 3.65257 -13.8411 0.0 0.0 0.0 0.0 0.0 
2462.52822226 762.05 -1510.92918441 38.2064380494 78.582105227 -36.9125859278 -3.23664 -0.0314263 0.402481 -3.23655 -0.0569733 0.399665 -3.23687 -0.160867 0.370271 -3.23704 -0.100371 0.391029 -10.065 7.33563 2.1462 -10.1039 12.3693 3.9304 -0.0 0.0 -0.0 4.56615 23.0396 9.01607 -11.585 -14.5313 65.0495 0.455209 -12.7077 0.0506888 -71.6233 -6.75333 5.31387 2.4855 3.36966 18.1643 -0.0 0.0 -0.0 5.30737 18.0138 -9.26798 3.81183 7.35972 -71.0824 2.18495 47.2587 -0.956007 84.3154 4.34474 8.83408 1.705 -29.4759 -21.0912 0.0 0.0 0.0 10.3155 45.0982 -20.7317 -12.2288 0.307284 1.84798 18.4649 -7.91216 -2.62992 -20.4098 0.0 0.0 -0.0 0.0 -0.0 4.57887 28.4724 -7.64576 -9.41445 -0.271658 -1.41766 27.7118 -1.34827 3.65257 -13.8411 0.0 0.0 0.0 0.0 0.0 
2462.03018614 762.05 -1506.07285394 40.8724117437 79.2158853255 -39.6293326124 -3.23664 -0.0314263 0.402481 -3.23655 -0.0569733 0.399665 -3.23687 -0.160867 0.370271 -3.23704 -0.100371 0.391029 -10.065 7.33563 2.1462 -10.1039 12.3693 3.9304 -0.0 0.0 -0.0 4.56615 23.0396 9.01607 -11.585 -14.5313 65.0495 0.455209 -12.7077 0.0506888 -71.6233 -6.75333 5.31387 2.4855 3.36966 18.1643 -0.0 0.0 -0.0 5.30737 18.0138 -9.26798 3.81183 7.35972 -71.0824 2.18495 47.2587 -0.956007 84.3154 4.34474 8.83408 1.705 -29.4759 -21.0912 0.0 0.0 0.0 10.3155 45.0982 -20.7317 -12.2288 0.307284 1.84798 18.4649 -7.91216 -2.62992 -20.4098 0.0 0.0 -0.0 0.0 -0.0 4.57887 28.4724 -7.64576 -9.41445 -0.271658 -1.41766 27.7118 -1.34827 3.65257 -13.8411 0.0 0.0 0.0 0.0 0.0 
2461.85951604 762.05 -1504.22918081 41.9668850096 79.4495679971 -40.7430489019 -3.23664 -0.0314263 0.402481 -3.23655 -0.0569733 0.399665 -3.23687 -0.160867 0.370271 -3.23704 -0.100371 0.391029 -10.065 7.33563 2.1462 -10.1039 12.3693 3.9304 -0.0 0.0 -0.0 4.56615 23.0396 9.01607 -11.585 -14.5313 65.0495 0.455209 -12.7077 0.0506888 -71.6233 -6.75333 5.31387 2.4855 3.36966 18.1643 -0.0 0.0 -0.0 5.30737 18.0138 -9.26798 3.81183 7.35972 -71.0824 2.18495 47.2587 -0.956007 84.3154 4.34474 8.83408 1.705 -29.4759 -21.0912 0.0 0.0 0.0 10.3155 45.0982 -20.7317 -12.2288 0.307284 1.84798 18.4649 -7.91216 -2.62992 -20.4098 0.0 0.0 -0.0 0.0 -0.0 4.57887 28.4724 -7.64576 -9.41445 -0.271658 -1.41766 27.7118 -1.34827 3.65257 -13.8411 0.0 0.0 0.0 0.0 0.0 
2462.10943324 762.05 -1506.89375777 40.4002029402 79.1105567837 -39.1485502008 -3.23664 -0.0314263 0.402481 -3.23655 -0.0569733 0.399665 -3.23687 -0.160867 0.370271 -3.23704 -0.100371 0.391029 -10.065 7.33563 2.1462 -10.1039 12.3693 3.9304 -0.0 0.0 -0.0 4.56615 23.0396 9.01607 -11.585 -14.5313 65.0495 0.455209 -12.7077 0.0506888 -71.6233 -6.75333 5.31387 2.4855 3.36966 18.1643 -0.0 0.0 -0.0 5.30737 18.0138 -9.26798 3.81183 7.35972 -71.0824 2.18495 47.2587 -0.956007 84.3154 4.34474 8.83408 1.705 -29.4759 -21.0912 0.0 0.0 0.0 10.3155 45.0982 -20.7317 -12.2288 0.307284 1.84798 18.4649 -7.91216 -2.62992 -20.4098 0.0 0.0 -0.0 0.0 -0.0 4.57887 28.4724 -7.64576 -9.41445 -0.271658 -1.41766 27.7118 -1.34827 3.65257 -13.8411 0.0 0.0 0.0 0.0 0.0 
2462.1243413 762.05 -1507.045903 40.3136817465 79.0909513091 -39.0604395997 -3.23664 -0.0314263 0.402481 -3.23655 -0.0569733 0.399665 -3.23687 -0.160867 0.370271 -3.23704 -0.100371 0.391029 -10.065 7.33563 2.1462 -10.1039 12.3693 3.9304 -0.0 0.0 -0.0 4.56615 23.0396 9.01607 -11.585 -14.5313 65.0495 0.455209 -12.7077 0.0506888 -71.6233 -6.75333 5.31387 2.4855 3.36966 18.1643 -0.0 0.0 -0.0 5.30737 18.0138 -9.26798 3.81183 7.35972 -71.0824 2.18495 47.2587 -0.956007 84.3154 4.34474 8.83408 1.705 -29.4759 -21.0912 0.0 0.0 0.0 10.3155 45.0982 -20.7317 -12.2288 0.307284 1.84798 18.4649 -7.91216 -2.62992 -20.4098 0.0 0.0 -0.0 0.0 -0.0 4.57887 28.4724 -7.64576 -9.41445 -0.271658 -1.41766 27.7118 -1.34827 3.65257 -13.8411 0.0 0.0 0.0 0.0 0.0 
2447.98795158 756.981 -1517.12779001 29.6177991148 77.9319297614 -27.9529354218 -2.66638 -0.0854658 0.179001 -2.66636 -0.0966828 0.1732 -2.66666 -0.137717 0.142758 -2.66667 -0.113443 0.162716 -12.945 7.09025 2.62415 -13.0152 11.841 4.61849 -0.0 0.0 -0.0 4.79719 22.5284 9.35677 -9.29375 -15.4154 64.3808 0.546801 -15.1562 0.0727465 -71.0185 -6.67606 5.31024 2.91917 3.91402 21.4273 -0.0 0.0 -0.0 5.09541 17.0257 -8.89178 0.902687 9.02083 -69.8738 2.06223 45.6058 -0.867082 83.8046 4.28397 8.80952 0.951737 -25.6899 -15.6668 0.0 0.0 0.0 9.87435 45.426 -21.0587 -12.2146 0.307157 1.84581 21.2984 -14.6332 -3.10856 -16.6083 0.0 0.0 -0.0 0.0 -0.0 3.40037 27.8092 -6.80068 -7.51061 -0.23559 -1.12776 28.3484 -0.521372 3.72787 -13.99 0.0 0.0 0.0 0.0 0.0 
